<svg width="22" height="19" viewBox="0 0 22 19" fill="none" xmlns="http://www.w3.org/2000/svg">
<path d="M2 0C0.906937 0 0 0.783264 0 1.72727V17.2727C0 18.2167 0.906937 19 2 19H20C21.0931 19 22 18.2167 22 17.2727V1.72727C22 0.783264 21.0931 0 20 0H2ZM2 1.72727H20V17.2727H14.8125V11.4432H17.4062L17.7812 8.85227H14.8125V7.17898C14.8125 6.42416 15.0282 5.91051 16.2812 5.91051H17.9062V3.5625C17.6292 3.53055 16.6665 3.48153 15.5625 3.48153C13.2585 3.48153 11.6875 4.67832 11.6875 6.90909V8.85227H9.0625V11.4432H11.6875V17.2727H2V1.72727Z" fill="#FFF2F2"/>
</svg>
