<svg width="22" height="19" viewBox="0 0 22 19" fill="none" xmlns="http://www.w3.org/2000/svg">
<path d="M3 0C1.35503 0 0 1.17025 0 2.59091V16.4091C0 17.8297 1.35503 19 3 19H19C20.645 19 22 17.8297 22 16.4091V2.59091C22 1.17025 20.645 0 19 0H3ZM16 2.59091H19V5.18182H16V2.59091ZM11 6.04545C13.221 6.04545 15 7.58188 15 9.5C15 11.4181 13.221 12.9545 11 12.9545C8.77902 12.9545 7 11.4181 7 9.5C7 7.58188 8.77902 6.04545 11 6.04545ZM2 7.77273H5.34375C5.12226 8.31199 5 8.897 5 9.5C5 12.3516 7.69814 14.6818 11 14.6818C14.3019 14.6818 17 12.3516 17 9.5C17 8.897 16.8777 8.31199 16.6562 7.77273H20V16.4091C20 16.8971 19.565 17.2727 19 17.2727H3C2.43497 17.2727 2 16.8971 2 16.4091V7.77273Z" fill="#FFFDFD"/>
</svg>
